<svg id="Слой_1" data-name="Слой 1" xmlns="http://www.w3.org/2000/svg" width="45" height="45" viewBox="0 0 45 45">
  <defs>
    <style>
      .cls-1 {
        fill: #4c4a4a;
      }

      .cls-2 {
        fill: #fff;
      }
    </style>
  </defs>
  <circle class="cls-1" cx="22.5" cy="22.5" r="22.5"/>
  <path class="cls-2" d="M19.33,13.82A5.2,5.2,0,0,0,14.13,19v8.33a5.21,5.21,0,0,0,5.2,5.21h8.34a5.21,5.21,0,0,0,5.2-5.21V19a5.2,5.2,0,0,0-5.2-5.21Zm0,2.08h8.34A3.13,3.13,0,0,1,30.79,19v8.33a3.12,3.12,0,0,1-3.12,3.12H19.33a3.12,3.12,0,0,1-3.12-3.12V19A3.13,3.13,0,0,1,19.33,15.9Zm9.38,1a1,1,0,1,0,1,1A1,1,0,0,0,28.71,16.94ZM23.5,18a5.21,5.21,0,1,0,5.21,5.21A5.22,5.22,0,0,0,23.5,18Zm0,2.09a3.13,3.13,0,1,1-3.12,3.12A3.12,3.12,0,0,1,23.5,20.07Z" transform="translate(-1 -1)"/>
</svg>
