<svg id="Слой_1" data-name="Слой 1" xmlns="http://www.w3.org/2000/svg" width="45" height="45" viewBox="0 0 45 45">
  <defs>
    <style>
      .cls-1 {
        fill: #4c4a4a;
      }

      .cls-2 {
        fill: #fff;
      }
    </style>
  </defs>
  <circle class="cls-1" cx="22.5" cy="22.5" r="22.5"/>
  <path class="cls-2" d="M16.49,9A7.5,7.5,0,0,0,9,16.5v12A7.5,7.5,0,0,0,16.49,36h12A7.5,7.5,0,0,0,36,28.5v-12A7.49,7.49,0,0,0,28.52,9h0Zm0,3h12A4.5,4.5,0,0,1,33,16.5v12A4.49,4.49,0,0,1,28.51,33h-12A4.49,4.49,0,0,1,12,28.5h0v-12A4.5,4.5,0,0,1,16.49,12ZM28,15.48a1.41,1.41,0,1,1,0,.06Zm-5.51-.42A7.51,7.51,0,1,0,30,22.56h0A7.52,7.52,0,0,0,22.5,15.06Zm0,3A4.51,4.51,0,1,1,18,22.59v0A4.5,4.5,0,0,1,22.47,18h0Z"/>
</svg>
