<svg id="Слой_1" data-name="Слой 1" xmlns="http://www.w3.org/2000/svg" width="45" height="45" viewBox="0 0 45 45">
  <defs>
    <style>
      .cls-1 {
        fill: #4c4a4a;
      }

      .cls-2 {
        fill: #fff;
      }
    </style>
  </defs>
  <path class="cls-1" d="M23.5,46A22.5,22.5,0,1,0,1,23.5,22.5,22.5,0,0,0,23.5,46Z" transform="translate(-1 -1)"/>
  <path class="cls-2" d="M15.76,10.66a1.21,1.21,0,0,1,.69.18,1.32,1.32,0,0,1,.49.53l3,5.6a1.62,1.62,0,0,1-.33,1.85l-1.38,1.31a.7.7,0,0,0-.15.39,11.66,11.66,0,0,0,3.49,5.14c1.38,1.27,2.87,3,4.82,3.4a.67.67,0,0,0,.34.09.68.68,0,0,0,.35-.09l1.58-1.61a1.84,1.84,0,0,1,.91-.41,1.82,1.82,0,0,1,1,.14l5.34,3.15a1.24,1.24,0,0,1,.43.39,1.33,1.33,0,0,1,.21.54,1.26,1.26,0,0,1,0,.58,1.22,1.22,0,0,1-.3.5L32.49,36a2.69,2.69,0,0,1-.91.57,2.5,2.5,0,0,1-1,.17,17,17,0,0,1-8.42-3.17,32.47,32.47,0,0,1-9.83-10.73,13.71,13.71,0,0,1-1.8-6.11,2.79,2.79,0,0,1,.16-1.07,2.87,2.87,0,0,1,.58-.92l3.67-3.67a1.43,1.43,0,0,1,.87-.4Z" transform="translate(-1 -1)"/>
</svg>
