<svg width="45" height="45" viewBox="0 0 45 45" fill="none" xmlns="http://www.w3.org/2000/svg">
<g clip-path="url(#clip0_53_160)">
<path d="M22.5 0C16.534 0 10.807 2.37199 6.5918 6.59004C2.37221 10.8098 0.00116884 16.5325 0 22.5C0 28.465 2.37305 34.1919 6.5918 38.41C10.807 42.628 16.534 45 22.5 45C28.466 45 34.193 42.628 38.4082 38.41C42.627 34.1919 45 28.465 45 22.5C45 16.535 42.627 10.8081 38.4082 6.59004C34.193 2.37199 28.466 0 22.5 0Z" fill="#4D4A4A"/>
<path d="M10.1843 22.2623C16.7445 19.4048 21.1179 17.5208 23.3047 16.6106C29.5554 14.0115 30.8527 13.5601 31.7 13.5448C31.8863 13.5418 32.3011 13.5879 32.5718 13.8067C32.7968 13.9913 32.8601 14.2409 32.8918 14.4162C32.9199 14.5913 32.9586 14.9903 32.9269 15.3018C32.5894 18.8596 31.1234 27.4932 30.3781 31.4782C30.0652 33.1643 29.4429 33.7296 28.8418 33.7848C27.534 33.905 26.5425 32.9214 25.2769 32.092C23.2976 30.7937 22.1797 29.9858 20.2566 28.7191C18.0347 27.2552 19.4761 26.4505 20.7418 25.1357C21.0722 24.7915 26.8308 19.555 26.9398 19.08C26.9539 19.0206 26.9679 18.7991 26.8343 18.6824C26.7043 18.5653 26.5109 18.6054 26.3703 18.637C26.1699 18.682 23.0093 20.7731 16.8781 24.91C15.9816 25.5266 15.1695 25.8272 14.4382 25.8114C13.6367 25.7941 12.0898 25.3572 10.9402 24.9838C9.53395 24.5257 8.41247 24.2835 8.5109 23.5055C8.56012 23.1005 9.11911 22.686 10.1843 22.2623Z" fill="white"/>
</g>
<defs>
<clipPath id="clip0_53_160">
<rect width="45" height="45" fill="white"/>
</clipPath>
</defs>
</svg>
